<svg width="25" height="24" viewBox="0 0 25 24" fill="none" xmlns="http://www.w3.org/2000/svg">
<path d="M16.9092 6.34311L7.00972 16.2426C6.61919 16.6331 6.61919 17.2663 7.00972 17.6568C7.40024 18.0473 8.03341 18.0473 8.42393 17.6568L18.3234 7.75732C18.714 7.36679 18.714 6.73363 18.3234 6.34311C17.9329 5.95258 17.2997 5.95258 16.9092 6.34311Z" fill="#FF6DC1"/>
<path opacity="0.3" d="M18.3235 16.2426L8.42403 6.34309C8.0335 5.95257 7.40034 5.95257 7.00981 6.34309C6.61929 6.73362 6.61929 7.36678 7.00981 7.75731L16.9093 17.6568C17.2998 18.0473 17.933 18.0473 18.3235 17.6568C18.714 17.2663 18.714 16.6331 18.3235 16.2426Z" fill="#FF6DC1"/>
</svg>
