<svg width="1075" height="142" viewBox="0 0 1075 142" fill="none" xmlns="http://www.w3.org/2000/svg">
<path d="M58.7 108.75C40.4 108.75 26.1 104.2 15.8 95.1C5.6 85.9 0.5 72.3 0.5 54.3C0.5 36.4 5.7 22.9 16.1 13.8C26.6 4.6 41.8 -4.29153e-06 61.7 -4.29153e-06H118.7V19.5H63.35C50.25 19.5 40.55 22.25 34.25 27.75C28.05 33.25 24.95 42.1 24.95 54.3C24.95 65.9 27.7 74.5 33.2 80.1C38.7 85.6 46.75 88.6 57.35 89.1V47.4H124.55V108.75H58.7ZM79.85 89.25H100.55V66.9H79.85V89.25ZM444.686 108.75C426.386 108.75 412.086 104.2 401.786 95.1C391.586 85.9 386.486 72.3 386.486 54.3C386.486 36.4 391.686 22.9 402.086 13.8C412.586 4.6 427.786 -4.29153e-06 447.686 -4.29153e-06H504.686V19.5H449.336C436.236 19.5 426.536 22.25 420.236 27.75C414.036 33.25 410.936 42.1 410.936 54.3C410.936 65.9 413.686 74.5 419.186 80.1C424.686 85.6 432.736 88.6 443.336 89.1V47.4H510.536V108.75H444.686ZM465.836 89.25H486.536V66.9H465.836V89.25Z" fill="#4285F4"/>
<path d="M182.864 108.75C169.464 108.75 159.014 105.45 151.514 98.85C144.014 92.15 140.264 82.35 140.264 69.45C140.264 56.45 144.014 46.65 151.514 40.05C159.014 33.35 169.464 30 182.864 30H210.614C224.014 30 234.464 33.35 241.964 40.05C249.464 46.65 253.214 56.45 253.214 69.45C253.214 82.35 249.464 92.15 241.964 98.85C234.464 105.45 224.014 108.75 210.614 108.75H182.864ZM182.864 91.5H210.614C217.114 91.5 222.064 89.7 225.464 86.1C228.964 82.5 230.714 76.95 230.714 69.45C230.714 61.85 228.964 56.25 225.464 52.65C222.064 49.05 217.114 47.25 210.614 47.25H182.864C176.364 47.25 171.364 49.05 167.864 52.65C164.464 56.25 162.764 61.85 162.764 69.45C162.764 76.95 164.464 82.5 167.864 86.1C171.364 89.7 176.364 91.5 182.864 91.5ZM584.882 141.75V124.5H630.182C636.182 124.5 639.182 121.45 639.182 115.35V108H592.832C584.032 108 577.582 105.8 573.482 101.4C569.482 97 567.482 91.3 567.482 84.3V30.75H589.232V81.75C589.232 87.75 592.232 90.75 598.232 90.75H638.432V30.75H660.932V118.05C660.932 125.15 658.882 130.85 654.782 135.15C650.682 139.55 644.282 141.75 635.582 141.75H584.882Z" fill="#EA4335"/>
<path d="M306.35 108.75C292.95 108.75 282.5 105.45 275 98.85C267.5 92.15 263.75 82.35 263.75 69.45C263.75 56.45 267.5 46.65 275 40.05C282.5 33.35 292.95 30 306.35 30H334.1C347.5 30 357.95 33.35 365.45 40.05C372.95 46.65 376.7 56.45 376.7 69.45C376.7 82.35 372.95 92.15 365.45 98.85C357.95 105.45 347.5 108.75 334.1 108.75H306.35ZM306.35 91.5H334.1C340.6 91.5 345.55 89.7 348.95 86.1C352.45 82.5 354.2 76.95 354.2 69.45C354.2 61.85 352.45 56.25 348.95 52.65C345.55 49.05 340.6 47.25 334.1 47.25H306.35C299.85 47.25 294.85 49.05 291.35 52.65C287.95 56.25 286.25 61.85 286.25 69.45C286.25 76.95 287.95 82.5 291.35 86.1C294.85 89.7 299.85 91.5 306.35 91.5Z" fill="#FBBC05"/>
<path d="M529.25 108V0.749995H551V108H529.25Z" fill="#34A853"/>
<path d="M732.184 108V1.04999L822.484 0.749995C834.384 0.749995 843.184 3.25 848.884 8.25C854.684 13.15 857.584 20.55 857.584 30.45C857.584 40.35 854.284 47.6 847.684 52.2C852.084 54.6 855.334 57.8 857.434 61.8C859.534 65.7 860.584 70.75 860.584 76.95C860.584 87.05 857.684 94.75 851.884 100.05C846.184 105.25 837.384 107.85 825.484 107.85L732.184 108ZM819.634 19.95H756.184V43.95H819.634C828.734 43.95 833.284 39.85 833.284 31.65C833.284 23.85 828.734 19.95 819.634 19.95ZM822.634 63.15H756.184V88.65H822.634C831.734 88.65 836.284 84.35 836.284 75.75C836.284 67.35 831.734 63.15 822.634 63.15ZM914.407 108.75C901.007 108.75 890.557 105.45 883.057 98.85C875.557 92.15 871.807 82.35 871.807 69.45C871.807 56.45 875.557 46.65 883.057 40.05C890.557 33.35 901.007 30 914.407 30H942.157C955.557 30 966.007 33.35 973.507 40.05C981.007 46.65 984.757 56.45 984.757 69.45C984.757 82.35 981.007 92.15 973.507 98.85C966.007 105.45 955.557 108.75 942.157 108.75H914.407ZM914.407 91.5H942.157C948.657 91.5 953.607 89.7 957.007 86.1C960.507 82.5 962.257 76.95 962.257 69.45C962.257 61.85 960.507 56.25 957.007 52.65C953.607 49.05 948.657 47.25 942.157 47.25H914.407C907.907 47.25 902.907 49.05 899.407 52.65C896.007 56.25 894.307 61.85 894.307 69.45C894.307 76.95 896.007 82.5 899.407 86.1C902.907 89.7 907.907 91.5 914.407 91.5ZM1041.42 108C1032.72 108 1026.32 105.85 1022.22 101.55C1018.12 97.15 1016.07 91.4 1016.07 84.3V48H993.723V30.75H1016.07V7.04999H1037.82V30.75H1069.92V48H1037.82V81.6C1037.82 87.7 1040.82 90.75 1046.82 90.75H1074.12V108H1041.42Z" fill="white"/>
</svg>
