<svg width="403" height="346" viewBox="0 0 403 346" fill="none" xmlns="http://www.w3.org/2000/svg">
<rect width="403" height="346" fill="#0E0E0E"/>
<path d="M42.152 136H49.864V134.88H43.944C45.336 133.968 46.952 132.768 47.96 131.904C49.048 130.944 49.784 129.536 49.784 128.384C49.784 126.272 48.28 124.864 46.008 124.864C43.688 124.864 42.152 126.544 42.152 129.072H43.352C43.352 127.216 44.408 125.984 46.008 125.984C47.512 125.984 48.504 126.944 48.504 128.384C48.504 129.248 47.96 130.304 47.16 131.008C45.848 132.144 43.832 133.632 42.152 134.72V136ZM56.0236 124.864C53.4636 124.864 52.0236 126.896 52.0236 130.512C52.0236 134.128 53.4636 136.16 56.0236 136.16C58.5836 136.16 60.0236 134.128 60.0236 130.512C60.0236 126.896 58.5836 124.864 56.0236 124.864ZM56.0236 125.984C56.9996 125.984 57.7356 126.496 58.1996 127.456L53.6396 133.056C53.4156 132.368 53.3036 131.52 53.3036 130.512C53.3036 127.616 54.2796 125.984 56.0236 125.984ZM56.0236 135.04C55.2556 135.04 54.6476 134.72 54.1996 134.128L58.5996 128.736C58.6956 129.264 58.7436 129.856 58.7436 130.512C58.7436 133.408 57.7676 135.04 56.0236 135.04ZM62.5033 136H63.9433V132.864L65.4473 130.912L68.4873 136H70.0712L66.3433 129.744L69.9913 125.024H68.1833L63.9433 130.608V125.024H62.5033V136ZM79.1749 137.744H80.4549V136.192C82.7589 136 84.2949 134.688 84.2949 132.896C84.2949 131.296 82.7589 129.952 80.4549 129.536V126.528C81.4469 126.64 82.1189 127.232 82.1509 128H83.9589C83.9269 126.256 82.5189 124.992 80.4549 124.832V123.28H79.1749V124.832C77.0309 124.992 75.5909 126.272 75.5909 128.032C75.5909 129.6 77.0309 130.896 79.1749 131.28V134.48C78.0389 134.32 77.2709 133.632 77.2709 132.752H75.4629C75.4629 134.608 76.9509 135.984 79.1749 136.192V137.744ZM79.1749 129.344C78.1829 129.136 77.5109 128.608 77.5109 128.032C77.5109 127.248 78.1829 126.656 79.1749 126.544V129.344ZM80.4549 134.48V131.488C81.6069 131.728 82.3749 132.288 82.3749 132.896C82.3749 133.664 81.6069 134.304 80.4549 134.48ZM90.1271 136.224C93.0551 136.224 95.0071 134.848 95.0071 132.8C95.0071 128.784 87.8551 129.728 87.8551 128.032C87.8551 127.248 88.7671 126.72 90.1271 126.72C91.4071 126.72 92.4311 127.408 92.6871 128.448L94.6551 127.952C94.1431 126.064 92.3351 124.8 90.1271 124.8C87.4871 124.8 85.7271 126.096 85.7271 128.032C85.7271 131.92 92.8791 130.56 92.8791 132.8C92.8791 133.696 91.7751 134.304 90.1271 134.304C88.3831 134.304 87.1991 133.472 87.1511 132.224H85.1191C85.1671 134.624 87.1671 136.224 90.1271 136.224ZM100.734 127.776C99.7579 127.776 98.6859 128.224 98.0779 128.88V128H96.1579V138.976H98.0779V135.12C98.6859 135.776 99.7579 136.224 100.734 136.224C103.262 136.224 104.958 134.528 104.958 132C104.958 129.472 103.262 127.776 100.734 127.776ZM100.542 129.472C102.046 129.472 103.038 130.48 103.038 132C103.038 133.52 102.046 134.528 100.542 134.528C99.0699 134.528 98.0779 133.52 98.0779 132C98.0779 130.48 99.0699 129.472 100.542 129.472ZM106.111 126.784H108.031V125.024H106.111V126.784ZM106.111 136H108.031V128H106.111V136ZM113.518 136.224C115.694 136.224 117.374 134.832 117.71 132.752H115.87C115.63 133.824 114.686 134.528 113.518 134.528C112.062 134.528 111.102 133.52 111.102 132C111.102 130.48 112.062 129.472 113.518 129.472C114.67 129.472 115.598 130.144 115.854 131.168H117.694C117.342 129.136 115.678 127.776 113.518 127.776C110.91 127.776 109.182 129.472 109.182 132C109.182 134.528 110.91 136.224 113.518 136.224ZM119.673 138.976H121.737L126.057 128H123.993L122.025 133.024L120.041 128H117.993L121.049 135.488L119.673 138.976Z" fill="white"/>
<path d="M195.008 136.16C197.424 136.16 199.024 134.576 199.024 132.192C199.024 129.808 197.488 128.224 195.168 128.224C194.224 128.224 193.136 128.608 192.48 129.168L192.864 126.144H198.544V125.024H191.712L191.04 130.464L192.368 130.624C192.896 129.856 193.952 129.344 195.008 129.344C196.656 129.344 197.744 130.48 197.744 132.192C197.744 133.904 196.656 135.04 195.008 135.04C193.312 135.04 192.192 133.92 192.192 132.224H190.992C190.992 134.592 192.592 136.16 195.008 136.16ZM205.024 124.864C202.464 124.864 201.024 126.896 201.024 130.512C201.024 134.128 202.464 136.16 205.024 136.16C207.584 136.16 209.024 134.128 209.024 130.512C209.024 126.896 207.584 124.864 205.024 124.864ZM205.024 125.984C206 125.984 206.736 126.496 207.2 127.456L202.64 133.056C202.416 132.368 202.304 131.52 202.304 130.512C202.304 127.616 203.28 125.984 205.024 125.984ZM205.024 135.04C204.256 135.04 203.648 134.72 203.2 134.128L207.6 128.736C207.696 129.264 207.744 129.856 207.744 130.512C207.744 133.408 206.768 135.04 205.024 135.04ZM215.039 124.864C212.479 124.864 211.039 126.896 211.039 130.512C211.039 134.128 212.479 136.16 215.039 136.16C217.599 136.16 219.039 134.128 219.039 130.512C219.039 126.896 217.599 124.864 215.039 124.864ZM215.039 125.984C216.015 125.984 216.751 126.496 217.215 127.456L212.655 133.056C212.431 132.368 212.319 131.52 212.319 130.512C212.319 127.616 213.295 125.984 215.039 125.984ZM215.039 135.04C214.271 135.04 213.663 134.72 213.215 134.128L217.615 128.736C217.711 129.264 217.759 129.856 217.759 130.512C217.759 133.408 216.783 135.04 215.039 135.04ZM221.519 136H222.959V132.864L224.463 130.912L227.503 136H229.087L225.359 129.744L229.007 125.024H227.199L222.959 130.608V125.024H221.519V136ZM238.191 137.744H239.471V136.192C241.775 136 243.311 134.688 243.311 132.896C243.311 131.296 241.775 129.952 239.471 129.536V126.528C240.463 126.64 241.135 127.232 241.167 128H242.975C242.943 126.256 241.535 124.992 239.471 124.832V123.28H238.191V124.832C236.047 124.992 234.607 126.272 234.607 128.032C234.607 129.6 236.047 130.896 238.191 131.28V134.48C237.055 134.32 236.287 133.632 236.287 132.752H234.479C234.479 134.608 235.967 135.984 238.191 136.192V137.744ZM238.191 129.344C237.199 129.136 236.527 128.608 236.527 128.032C236.527 127.248 237.199 126.656 238.191 126.544V129.344ZM239.471 134.48V131.488C240.623 131.728 241.391 132.288 241.391 132.896C241.391 133.664 240.623 134.304 239.471 134.48ZM249.143 136.224C252.071 136.224 254.023 134.848 254.023 132.8C254.023 128.784 246.871 129.728 246.871 128.032C246.871 127.248 247.783 126.72 249.143 126.72C250.423 126.72 251.447 127.408 251.703 128.448L253.671 127.952C253.159 126.064 251.351 124.8 249.143 124.8C246.503 124.8 244.743 126.096 244.743 128.032C244.743 131.92 251.895 130.56 251.895 132.8C251.895 133.696 250.791 134.304 249.143 134.304C247.399 134.304 246.215 133.472 246.167 132.224H244.135C244.183 134.624 246.183 136.224 249.143 136.224ZM259.75 127.776C258.774 127.776 257.702 128.224 257.094 128.88V128H255.174V138.976H257.094V135.12C257.702 135.776 258.774 136.224 259.75 136.224C262.278 136.224 263.974 134.528 263.974 132C263.974 129.472 262.278 127.776 259.75 127.776ZM259.558 129.472C261.062 129.472 262.054 130.48 262.054 132C262.054 133.52 261.062 134.528 259.558 134.528C258.086 134.528 257.094 133.52 257.094 132C257.094 130.48 258.086 129.472 259.558 129.472ZM265.127 126.784H267.047V125.024H265.127V126.784ZM265.127 136H267.047V128H265.127V136ZM272.533 136.224C274.709 136.224 276.389 134.832 276.725 132.752H274.885C274.645 133.824 273.701 134.528 272.533 134.528C271.077 134.528 270.117 133.52 270.117 132C270.117 130.48 271.077 129.472 272.533 129.472C273.685 129.472 274.613 130.144 274.869 131.168H276.709C276.357 129.136 274.693 127.776 272.533 127.776C269.925 127.776 268.197 129.472 268.197 132C268.197 134.528 269.925 136.224 272.533 136.224ZM278.688 138.976H280.752L285.072 128H283.008L281.04 133.024L279.056 128H277.008L280.064 135.488L278.688 138.976Z" fill="white"/>
<path d="M50.136 65.336C54.528 65.336 57.456 63.272 57.456 60.2C57.456 54.176 46.728 55.592 46.728 53.048C46.728 51.872 48.096 51.08 50.136 51.08C52.056 51.08 53.592 52.112 53.976 53.672L56.928 52.928C56.16 50.096 53.448 48.2 50.136 48.2C46.176 48.2 43.536 50.144 43.536 53.048C43.536 58.88 54.264 56.84 54.264 60.2C54.264 61.544 52.608 62.456 50.136 62.456C47.52 62.456 45.744 61.208 45.672 59.336H42.624C42.696 62.936 45.696 65.336 50.136 65.336ZM63.9276 65.336C64.7196 65.336 65.5356 65.192 65.9676 65V62.936H63.8796C63.2556 62.936 62.8236 62.528 62.8236 61.928V55.4H65.8476V53H62.8236V48.536H59.9436V53H58.0236V55.4H59.9436V61.928C59.9436 63.968 61.5276 65.336 63.9276 65.336ZM73.0281 65.336C74.4441 65.336 76.0041 64.688 76.9161 63.704V65H79.7961V53H76.9161V54.296C76.0041 53.312 74.4441 52.664 73.0281 52.664C69.2841 52.664 66.7881 55.208 66.7881 59C66.7881 62.792 69.2841 65.336 73.0281 65.336ZM73.3161 62.792C71.1321 62.792 69.6681 61.28 69.6681 59C69.6681 56.72 71.1321 55.208 73.3161 55.208C75.4761 55.208 76.9161 56.72 76.9161 59C76.9161 61.28 75.4761 62.792 73.3161 62.792ZM82.0103 65H84.8903V60.944L85.8263 60.008L89.8583 65H93.5543L87.8903 57.992L92.9783 53H88.9463L84.8903 57.08V48.536H82.0103V65ZM100.011 65.336C102.939 65.336 105.435 63.56 106.227 60.92H103.299C102.747 62.12 101.427 62.936 100.011 62.936C98.1388 62.936 96.6988 61.688 96.4348 59.792H106.275L106.515 59.552V59C106.515 55.208 103.923 52.664 100.011 52.664C96.0988 52.664 93.5068 55.208 93.5068 59C93.5068 62.792 96.0988 65.336 100.011 65.336ZM96.6268 57.392C97.1788 55.904 98.4028 55.064 100.011 55.064C101.619 55.064 102.843 55.904 103.395 57.392H96.6268ZM117.2 68.408L119.384 67.088C116.816 62.744 116.168 60.68 116.168 56.792C116.168 52.88 116.816 50.816 119.384 46.472L117.2 45.152C114.08 50.504 113.288 52.832 113.288 56.792C113.288 60.752 114.08 63.056 117.2 68.408ZM129.373 65H132.253V48.536H129.493C129.013 50.144 127.765 50.936 125.581 51.008V53.264C127.141 53.216 128.653 52.832 129.373 52.328V65ZM135.424 65H147.904V62.456H140.248L145.048 59.12C146.776 57.968 147.928 55.76 147.928 53.6C147.928 50.36 145.432 48.2 141.664 48.2C138.016 48.2 135.568 50.768 135.568 54.608H138.28C138.28 52.28 139.624 50.744 141.664 50.744C143.704 50.744 145.048 51.896 145.048 53.6C145.048 54.944 144.376 56.312 143.368 57.008L135.424 62.576V65ZM156.36 65.336C160.512 65.336 162.84 62.24 162.84 56.768C162.84 51.296 160.512 48.2 156.36 48.2C152.232 48.2 149.904 51.296 149.904 56.768C149.904 62.24 152.232 65.336 156.36 65.336ZM156.36 62.792C154.224 62.792 152.784 60.872 152.784 56.768C152.784 53.144 153.936 50.744 156.36 50.744C158.52 50.744 159.96 52.664 159.96 56.768C159.96 60.392 158.808 62.792 156.36 62.792ZM167.647 65.24H170.287L180.367 48.296H177.727L167.647 65.24ZM169.111 57.128C171.487 57.128 173.407 55.208 173.407 52.832C173.407 50.456 171.487 48.536 169.111 48.536C166.735 48.536 164.815 50.912 164.815 52.832C164.815 55.208 166.735 57.128 169.111 57.128ZM169.111 54.536C168.151 54.536 167.407 53.792 167.407 52.832C167.407 51.872 168.151 51.128 169.111 51.128C170.071 51.128 170.815 51.872 170.815 52.832C170.815 53.792 170.071 54.536 169.111 54.536ZM178.903 65.336C181.279 65.336 183.199 63.416 183.199 61.04C183.199 58.664 181.279 56.744 178.903 56.744C176.527 56.744 174.607 59.12 174.607 61.04C174.607 63.416 176.527 65.336 178.903 65.336ZM178.903 62.744C177.943 62.744 177.199 62 177.199 61.04C177.199 60.08 177.943 59.336 178.903 59.336C179.863 59.336 180.607 60.08 180.607 61.04C180.607 62 179.863 62.744 178.903 62.744ZM203.44 65H206.872L200.128 48.536H196.816L190.024 65H193.48L195.112 60.776H201.784L203.44 65ZM196.24 57.896L198.448 52.232L200.656 57.896H196.24ZM208.322 65H211.538V58.784H215.642C219.05 58.784 221.33 56.72 221.33 53.624C221.33 50.576 219.05 48.536 215.642 48.536H208.322V65ZM211.538 55.904V51.416H215.642C217.13 51.416 218.114 52.304 218.114 53.624C218.114 54.992 217.13 55.904 215.642 55.904H211.538ZM227.881 65H231.097V59.432L236.497 48.536H232.945L229.489 55.736L226.033 48.536H222.481L227.881 59.432V65ZM239.735 68.408C242.855 63.056 243.647 60.752 243.647 56.792C243.647 52.832 242.855 50.504 239.735 45.152L237.551 46.472C240.119 50.816 240.767 52.88 240.767 56.792C240.767 60.68 240.119 62.744 237.551 67.088L239.735 68.408Z" fill="white"/>
<path d="M45.068 110H47.48V99.812H51.044V97.652H41.504V99.812H45.068V110ZM54.555 110.252C57.489 110.252 59.433 108.344 59.433 105.5C59.433 102.656 57.489 100.748 54.555 100.748C51.621 100.748 49.677 102.656 49.677 105.5C49.677 108.344 51.621 110.252 54.555 110.252ZM54.555 108.344C52.917 108.344 51.837 107.21 51.837 105.5C51.837 103.79 52.917 102.656 54.555 102.656C56.193 102.656 57.273 103.79 57.273 105.5C57.273 107.21 56.193 108.344 54.555 108.344ZM64.2836 110.252C64.8776 110.252 65.4896 110.144 65.8136 110V108.452H64.2476C63.7796 108.452 63.4556 108.146 63.4556 107.696V102.8H65.7236V101H63.4556V97.652H61.2956V101H59.8556V102.8H61.2956V107.696C61.2956 109.226 62.4836 110.252 64.2836 110.252ZM71.1089 110.252C72.1709 110.252 73.3409 109.766 74.0249 109.028V110H76.1849V101H74.0249V101.972C73.3409 101.234 72.1709 100.748 71.1089 100.748C68.3009 100.748 66.4289 102.656 66.4289 105.5C66.4289 108.344 68.3009 110.252 71.1089 110.252ZM71.3249 108.344C69.6869 108.344 68.5889 107.21 68.5889 105.5C68.5889 103.79 69.6869 102.656 71.3249 102.656C72.9449 102.656 74.0249 103.79 74.0249 105.5C74.0249 107.21 72.9449 108.344 71.3249 108.344ZM77.8456 110H80.0056V97.652H77.8456V110ZM86.376 110H94.746V107.84H88.788V104.744H94.098V102.584H88.788V99.812H94.746V97.652H86.376V110ZM100.394 110.252C101.456 110.252 102.626 109.766 103.31 109.028V110H105.47V101H103.31V101.972C102.626 101.234 101.456 100.748 100.394 100.748C97.5861 100.748 95.7141 102.656 95.7141 105.5C95.7141 108.344 97.5861 110.252 100.394 110.252ZM100.61 108.344C98.9721 108.344 97.8741 107.21 97.8741 105.5C97.8741 103.79 98.9721 102.656 100.61 102.656C102.23 102.656 103.31 103.79 103.31 105.5C103.31 107.21 102.23 108.344 100.61 108.344ZM107.131 110H109.291V104.672C109.291 103.466 110.245 102.656 111.685 102.656H112.423V101C112.171 100.892 111.793 100.82 111.469 100.82C110.641 100.82 109.759 101.324 109.291 102.062V101H107.131V110ZM113.582 110H115.742V104.654C115.742 103.448 116.624 102.656 117.938 102.656C119.252 102.656 120.134 103.448 120.134 104.654V110H122.294V104.402C122.294 102.206 120.656 100.748 118.19 100.748C117.308 100.748 116.336 101.108 115.742 101.666V101H113.582V110ZM128.295 110.252C130.491 110.252 132.363 108.92 132.957 106.94H130.761C130.347 107.84 129.357 108.452 128.295 108.452C126.891 108.452 125.811 107.516 125.613 106.094H132.993L133.173 105.914V105.5C133.173 102.656 131.229 100.748 128.295 100.748C125.361 100.748 123.417 102.656 123.417 105.5C123.417 108.344 125.361 110.252 128.295 110.252ZM125.757 104.294C126.171 103.178 127.089 102.548 128.295 102.548C129.501 102.548 130.419 103.178 130.833 104.294H125.757ZM138.857 110.252C139.955 110.252 141.161 109.748 141.845 109.01V110H144.005V97.652H141.845V101.99C141.161 101.252 139.955 100.748 138.857 100.748C136.013 100.748 134.105 102.656 134.105 105.5C134.105 108.344 136.013 110.252 138.857 110.252ZM139.073 108.344C137.381 108.344 136.265 107.21 136.265 105.5C136.265 103.79 137.381 102.656 139.073 102.656C140.729 102.656 141.845 103.79 141.845 105.5C141.845 107.21 140.729 108.344 139.073 108.344Z" fill="white"/>
<path d="M194.068 110H196.48V99.812H200.044V97.652H190.504V99.812H194.068V110ZM203.555 110.252C206.489 110.252 208.433 108.344 208.433 105.5C208.433 102.656 206.489 100.748 203.555 100.748C200.621 100.748 198.677 102.656 198.677 105.5C198.677 108.344 200.621 110.252 203.555 110.252ZM203.555 108.344C201.917 108.344 200.837 107.21 200.837 105.5C200.837 103.79 201.917 102.656 203.555 102.656C205.193 102.656 206.273 103.79 206.273 105.5C206.273 107.21 205.193 108.344 203.555 108.344ZM213.284 110.252C213.878 110.252 214.49 110.144 214.814 110V108.452H213.248C212.78 108.452 212.456 108.146 212.456 107.696V102.8H214.724V101H212.456V97.652H210.296V101H208.856V102.8H210.296V107.696C210.296 109.226 211.484 110.252 213.284 110.252ZM220.109 110.252C221.171 110.252 222.341 109.766 223.025 109.028V110H225.185V101H223.025V101.972C222.341 101.234 221.171 100.748 220.109 100.748C217.301 100.748 215.429 102.656 215.429 105.5C215.429 108.344 217.301 110.252 220.109 110.252ZM220.325 108.344C218.687 108.344 217.589 107.21 217.589 105.5C217.589 103.79 218.687 102.656 220.325 102.656C221.945 102.656 223.025 103.79 223.025 105.5C223.025 107.21 221.945 108.344 220.325 108.344ZM226.846 110H229.006V97.652H226.846V110ZM239.713 110.252C243.007 110.252 245.203 108.704 245.203 106.4C245.203 101.882 237.157 102.944 237.157 101.036C237.157 100.154 238.183 99.56 239.713 99.56C241.153 99.56 242.305 100.334 242.593 101.504L244.807 100.946C244.231 98.822 242.197 97.4 239.713 97.4C236.743 97.4 234.763 98.858 234.763 101.036C234.763 105.41 242.809 103.88 242.809 106.4C242.809 107.408 241.567 108.092 239.713 108.092C237.751 108.092 236.419 107.156 236.365 105.752H234.079C234.133 108.452 236.383 110.252 239.713 110.252ZM250.057 110.252C250.651 110.252 251.263 110.144 251.587 110V108.452H250.021C249.553 108.452 249.229 108.146 249.229 107.696V102.8H251.497V101H249.229V97.652H247.069V101H245.629V102.8H247.069V107.696C247.069 109.226 248.257 110.252 250.057 110.252ZM256.882 110.252C257.944 110.252 259.114 109.766 259.798 109.028V110H261.958V101H259.798V101.972C259.114 101.234 257.944 100.748 256.882 100.748C254.074 100.748 252.202 102.656 252.202 105.5C252.202 108.344 254.074 110.252 256.882 110.252ZM257.098 108.344C255.46 108.344 254.362 107.21 254.362 105.5C254.362 103.79 255.46 102.656 257.098 102.656C258.718 102.656 259.798 103.79 259.798 105.5C259.798 107.21 258.718 108.344 257.098 108.344ZM263.619 110H265.779V106.958L266.481 106.256L269.505 110H272.277L268.029 104.744L271.845 101H268.821L265.779 104.06V97.652H263.619V110ZM277.119 110.252C279.315 110.252 281.187 108.92 281.781 106.94H279.585C279.171 107.84 278.181 108.452 277.119 108.452C275.715 108.452 274.635 107.516 274.437 106.094H281.817L281.997 105.914V105.5C281.997 102.656 280.053 100.748 277.119 100.748C274.185 100.748 272.241 102.656 272.241 105.5C272.241 108.344 274.185 110.252 277.119 110.252ZM274.581 104.294C274.995 103.178 275.913 102.548 277.119 102.548C278.325 102.548 279.243 103.178 279.657 104.294H274.581ZM287.681 110.252C288.779 110.252 289.985 109.748 290.669 109.01V110H292.829V97.652H290.669V101.99C289.985 101.252 288.779 100.748 287.681 100.748C284.837 100.748 282.929 102.656 282.929 105.5C282.929 108.344 284.837 110.252 287.681 110.252ZM287.897 108.344C286.205 108.344 285.089 107.21 285.089 105.5C285.089 103.79 286.205 102.656 287.897 102.656C289.553 102.656 290.669 103.79 290.669 105.5C290.669 107.21 289.553 108.344 287.897 108.344Z" fill="white"/>
<rect x="37.5" y="167.5" width="339" height="56" rx="19.5" stroke="white"/>
<path d="M64.12 200H71.208V198.72H65.56V194.752H70.632V193.472H65.56V190.304H71.208V189.024H64.12V200ZM72.6475 200H73.9275V195.264C73.9275 193.888 74.8395 192.96 76.1995 192.96C77.5595 192.96 78.4715 193.888 78.4715 195.264V200H79.7515V195.04C79.7515 193.12 78.4235 191.84 76.4235 191.84C75.4955 191.84 74.4875 192.32 73.9275 193.024V192H72.6475V200ZM84.5503 200.16C84.9343 200.16 85.4623 200.096 85.8623 200V199.04H84.4703C83.8623 199.04 83.4463 198.608 83.4463 197.952V193.12H85.7823V192H83.4463V189.024H82.1663V192H80.8863V193.12H82.1663V197.952C82.1663 199.28 83.1263 200.16 84.5503 200.16ZM90.6233 200.16C92.4153 200.16 93.9513 199.008 94.4633 197.28H93.1833C92.8313 198.336 91.8073 199.04 90.6233 199.04C89.0553 199.04 87.9673 197.92 87.9033 196.256H94.5113L94.6393 196.128C94.6393 193.552 93.0393 191.84 90.6233 191.84C88.2073 191.84 86.6073 193.504 86.6073 196C86.6073 198.496 88.2073 200.16 90.6233 200.16ZM87.9673 195.136C88.2713 193.744 89.2313 192.96 90.6233 192.96C92.0153 192.96 92.9753 193.744 93.2793 195.136H87.9673ZM96.1788 200H97.4588V195.328C97.4588 193.904 98.4188 192.96 99.8588 192.96H100.403V192C100.243 191.904 99.9868 191.84 99.7468 191.84C98.8508 191.84 98.1148 192.24 97.4588 193.104V192H96.1788V200ZM108.766 200.16C111.486 200.16 113.31 198.848 113.31 196.88C113.31 195.264 112.078 194.336 108.91 193.584C106.942 193.136 106.174 192.672 106.174 191.936C106.174 190.864 107.214 190.144 108.766 190.144C110.206 190.144 111.374 191.024 111.662 192.336L112.974 192.016C112.51 190.128 110.83 188.864 108.766 188.864C106.35 188.864 104.734 190.096 104.734 191.936C104.734 193.424 105.822 194.256 108.622 194.912C110.958 195.456 111.87 196 111.87 196.88C111.87 198.08 110.622 198.88 108.766 198.88C106.718 198.88 105.342 197.824 105.342 196.224H103.982C103.982 198.592 105.902 200.16 108.766 200.16ZM117.55 200.16C117.934 200.16 118.462 200.096 118.862 200V199.04H117.47C116.862 199.04 116.446 198.608 116.446 197.952V193.12H118.782V192H116.446V189.024H115.166V192H113.886V193.12H115.166V197.952C115.166 199.28 116.126 200.16 117.55 200.16ZM123.511 200.16C124.599 200.16 125.735 199.552 126.359 198.656V200H127.639V192H126.359V193.344C125.735 192.448 124.599 191.84 123.511 191.84C121.175 191.84 119.607 193.504 119.607 196C119.607 198.496 121.175 200.16 123.511 200.16ZM123.639 199.04C121.991 199.04 120.887 197.824 120.887 196C120.887 194.176 121.991 192.96 123.639 192.96C125.271 192.96 126.359 194.176 126.359 196C126.359 197.824 125.271 199.04 123.639 199.04ZM129.554 200H130.834V197.184L131.826 196.208L134.882 200H136.514L132.738 195.312L136.082 192H134.29L130.834 195.472V189.024H129.554V200ZM137.538 190.784H138.818V189.024H137.538V190.784ZM137.538 200H138.818V192H137.538V200ZM140.741 200H142.021V195.264C142.021 193.888 142.933 192.96 144.293 192.96C145.653 192.96 146.565 193.888 146.565 195.264V200H147.845V195.04C147.845 193.12 146.517 191.84 144.517 191.84C143.589 191.84 142.581 192.32 142.021 193.024V192H140.741V200ZM153.012 203.136C155.524 203.136 156.948 201.696 156.948 199.136V192H155.668V193.28C155.076 192.416 153.972 191.84 152.9 191.84C150.612 191.84 149.076 193.472 149.076 195.92C149.076 198.368 150.612 200 152.9 200C153.988 200 155.092 199.424 155.668 198.576V199.136C155.668 200.976 154.708 202.016 153.012 202.016C151.748 202.016 150.836 201.344 150.5 200.16H149.188C149.62 202.064 150.996 203.136 153.012 203.136ZM153.028 198.88C151.428 198.88 150.356 197.696 150.356 195.92C150.356 194.144 151.428 192.96 153.028 192.96C154.612 192.96 155.668 194.144 155.668 195.92C155.668 197.696 154.612 198.88 153.028 198.88ZM170.422 200H171.958L167.446 189.024H165.974L161.462 200H162.998L164.454 196.336H168.966L170.422 200ZM164.966 195.056L166.71 190.672L168.454 195.056H164.966ZM172.819 200H174.099V194.608C174.099 193.616 174.803 192.96 175.875 192.96C176.947 192.96 177.651 193.616 177.651 194.608V200H178.931V194.608C178.931 193.616 179.635 192.96 180.707 192.96C181.779 192.96 182.483 193.616 182.483 194.608V200H183.763V194.48C183.763 192.896 182.595 191.84 180.835 191.84C179.907 191.84 178.931 192.32 178.419 193.056C177.907 192.32 176.995 191.84 176.147 191.84C175.363 191.84 174.547 192.256 174.099 192.896V192H172.819V200ZM189.155 200.16C191.571 200.16 193.171 198.496 193.171 196C193.171 193.504 191.571 191.84 189.155 191.84C186.739 191.84 185.139 193.504 185.139 196C185.139 198.496 186.739 200.16 189.155 200.16ZM189.155 199.04C187.507 199.04 186.419 197.824 186.419 196C186.419 194.176 187.507 192.96 189.155 192.96C190.803 192.96 191.891 194.176 191.891 196C191.891 197.824 190.803 199.04 189.155 199.04ZM201.814 192H200.534V196.736C200.534 198.112 199.622 199.04 198.262 199.04C196.902 199.04 195.99 198.112 195.99 196.736V192H194.71V196.96C194.71 198.88 196.038 200.16 198.038 200.16C198.966 200.16 199.974 199.68 200.534 198.976V200H201.814V192ZM203.741 200H205.021V195.264C205.021 193.888 205.933 192.96 207.293 192.96C208.653 192.96 209.565 193.888 209.565 195.264V200H210.845V195.04C210.845 193.12 209.517 191.84 207.517 191.84C206.589 191.84 205.581 192.32 205.021 193.024V192H203.741V200ZM215.644 200.16C216.028 200.16 216.556 200.096 216.956 200V199.04H215.564C214.956 199.04 214.54 198.608 214.54 197.952V193.12H216.876V192H214.54V189.024H213.26V192H211.98V193.12H213.26V197.952C213.26 199.28 214.22 200.16 215.644 200.16Z" fill="white" fill-opacity="0.52"/>
<rect x="40" y="251" width="102" height="37" rx="10" fill="#FF0000"/>
<path d="M74.7131 275.224C77.6411 275.224 79.5931 273.848 79.5931 271.8C79.5931 267.784 72.4411 268.728 72.4411 267.032C72.4411 266.248 73.3531 265.72 74.7131 265.72C75.9931 265.72 77.0171 266.408 77.2731 267.448L79.2411 266.952C78.7291 265.064 76.9211 263.8 74.7131 263.8C72.0731 263.8 70.3131 265.096 70.3131 267.032C70.3131 270.92 77.4651 269.56 77.4651 271.8C77.4651 272.696 76.3611 273.304 74.7131 273.304C72.9691 273.304 71.7851 272.472 71.7371 271.224H69.7051C69.7531 273.624 71.7531 275.224 74.7131 275.224ZM83.9074 275.224C84.4354 275.224 84.9794 275.128 85.2674 275V273.624H83.8754C83.4594 273.624 83.1714 273.352 83.1714 272.952V268.6H85.1874V267H83.1714V264.024H81.2514V267H79.9714V268.6H81.2514V272.952C81.2514 274.312 82.3074 275.224 83.9074 275.224ZM89.9744 275.224C90.9184 275.224 91.9584 274.792 92.5664 274.136V275H94.4864V267H92.5664V267.864C91.9584 267.208 90.9184 266.776 89.9744 266.776C87.4784 266.776 85.8144 268.472 85.8144 271C85.8144 273.528 87.4784 275.224 89.9744 275.224ZM90.1664 273.528C88.7104 273.528 87.7344 272.52 87.7344 271C87.7344 269.48 88.7104 268.472 90.1664 268.472C91.6064 268.472 92.5664 269.48 92.5664 271C92.5664 272.52 91.6064 273.528 90.1664 273.528ZM95.9626 275H97.8826V272.296L98.5066 271.672L101.195 275H103.659L99.8826 270.328L103.275 267H100.587L97.8826 269.72V264.024H95.9626V275ZM107.963 275.224C109.915 275.224 111.579 274.04 112.107 272.28H110.155C109.787 273.08 108.907 273.624 107.963 273.624C106.715 273.624 105.755 272.792 105.579 271.528H112.139L112.299 271.368V271C112.299 268.472 110.571 266.776 107.963 266.776C105.355 266.776 103.627 268.472 103.627 271C103.627 273.528 105.355 275.224 107.963 275.224ZM105.707 269.928C106.075 268.936 106.891 268.376 107.963 268.376C109.035 268.376 109.851 268.936 110.219 269.928H105.707Z" fill="white"/>
<rect x="154" y="251" width="102" height="37" rx="10" fill="#FF0000"/>
<path d="M179.984 275.192C182.784 275.192 184.656 273.464 184.656 270.872V264.024H182.512V270.872C182.512 272.312 181.504 273.272 179.984 273.272C178.448 273.272 177.424 272.312 177.424 270.872V264.024H175.28V270.872C175.28 273.464 177.168 275.192 179.984 275.192ZM186.197 275H188.117V270.248C188.117 269.176 188.901 268.472 190.069 268.472C191.237 268.472 192.021 269.176 192.021 270.248V275H193.941V270.024C193.941 268.072 192.485 266.776 190.293 266.776C189.509 266.776 188.645 267.096 188.117 267.592V267H186.197V275ZM198.651 275.224C200.875 275.224 202.363 274.168 202.363 272.584C202.363 271.128 201.515 270.52 198.843 269.96C197.707 269.704 197.339 269.496 197.339 269.16C197.339 268.696 197.867 268.376 198.651 268.376C199.355 268.376 199.995 268.744 200.235 269.288L201.995 268.856C201.531 267.608 200.187 266.776 198.651 266.776C196.715 266.776 195.419 267.768 195.419 269.256C195.419 270.584 196.155 271.112 198.475 271.64C199.963 271.928 200.443 272.2 200.443 272.584C200.443 273.208 199.723 273.624 198.651 273.624C197.579 273.624 196.811 273.08 196.747 272.28H194.939C195.003 274.04 196.491 275.224 198.651 275.224ZM206.845 275.224C207.373 275.224 207.917 275.128 208.205 275V273.624H206.813C206.397 273.624 206.109 273.352 206.109 272.952V268.6H208.125V267H206.109V264.024H204.189V267H202.909V268.6H204.189V272.952C204.189 274.312 205.245 275.224 206.845 275.224ZM212.912 275.224C213.856 275.224 214.896 274.792 215.504 274.136V275H217.424V267H215.504V267.864C214.896 267.208 213.856 266.776 212.912 266.776C210.416 266.776 208.752 268.472 208.752 271C208.752 273.528 210.416 275.224 212.912 275.224ZM213.104 273.528C211.648 273.528 210.672 272.52 210.672 271C210.672 269.48 211.648 268.472 213.104 268.472C214.544 268.472 215.504 269.48 215.504 271C215.504 272.52 214.544 273.528 213.104 273.528ZM218.9 275H220.82V272.296L221.444 271.672L224.132 275H226.596L222.82 270.328L226.212 267H223.524L220.82 269.72V264.024H218.9V275ZM230.9 275.224C232.852 275.224 234.516 274.04 235.044 272.28H233.092C232.724 273.08 231.844 273.624 230.9 273.624C229.652 273.624 228.692 272.792 228.516 271.528H235.076L235.236 271.368V271C235.236 268.472 233.508 266.776 230.9 266.776C228.292 266.776 226.564 268.472 226.564 271C226.564 273.528 228.292 275.224 230.9 275.224ZM228.644 269.928C229.012 268.936 229.828 268.376 230.9 268.376C231.972 268.376 232.788 268.936 233.156 269.928H228.644Z" fill="white"/>
</svg>
