<svg width="1960" height="1960" viewBox="0 0 1960 1960" fill="none" xmlns="http://www.w3.org/2000/svg">
<g filter="url(#filter0_i_231_81)">
<path d="M1960 980C1960 818.838 1920.25 660.163 1844.28 518.031C1768.31 375.899 1658.46 254.697 1524.46 165.16C1390.46 75.623 1236.44 20.5156 1076.06 4.71897C915.671 -11.0777 753.865 12.924 604.97 74.598C456.076 136.272 324.69 233.715 222.45 358.295C120.21 482.874 50.2716 630.746 18.8304 788.811C-12.6107 946.877 -4.58438 1110.26 42.1985 1264.48C88.9813 1418.7 173.077 1559.01 287.035 1672.96L980 980L1960 980Z" fill="#34A853"/>
</g>
<g filter="url(#filter1_i_231_81)">
<path d="M287.035 1672.96C409.166 1795.1 561.405 1882.78 728.331 1927.13C895.258 1971.49 1070.94 1970.94 1237.59 1925.54C1404.23 1880.14 1555.92 1791.51 1677.29 1668.62C1798.65 1545.72 1885.38 1392.94 1928.69 1225.74L980 980L287.035 1672.96Z" fill="#B53A2F"/>
</g>
<g filter="url(#filter2_i_231_81)">
<path d="M1553.05 1774.99C1679.51 1683.83 1782.4 1563.83 1853.17 1424.93C1923.95 1286.04 1960.57 1132.26 1959.99 976.379L980 980L1553.05 1774.99Z" fill="#F9BB05"/>
</g>
<path d="M723.097 533H741.097C741.097 506.9 752.797 478.25 777.847 443.75V430.1H699.847V446H755.647C733.447 479 723.097 506.75 723.097 533ZM809.393 534.5H825.893L888.893 428.6H872.393L809.393 534.5ZM818.543 483.8C833.393 483.8 845.393 471.8 845.393 456.95C845.393 442.1 833.393 430.1 818.543 430.1C803.693 430.1 791.693 444.95 791.693 456.95C791.693 471.8 803.693 483.8 818.543 483.8ZM818.543 467.6C812.543 467.6 807.893 462.95 807.893 456.95C807.893 450.95 812.543 446.3 818.543 446.3C824.543 446.3 829.193 450.95 829.193 456.95C829.193 462.95 824.543 467.6 818.543 467.6ZM879.743 535.1C894.593 535.1 906.593 523.1 906.593 508.25C906.593 493.4 894.593 481.4 879.743 481.4C864.893 481.4 852.893 496.25 852.893 508.25C852.893 523.1 864.893 535.1 879.743 535.1ZM879.743 518.9C873.743 518.9 869.093 514.25 869.093 508.25C869.093 502.25 873.743 497.6 879.743 497.6C885.743 497.6 890.393 502.25 890.393 508.25C890.393 514.25 885.743 518.9 879.743 518.9ZM479.138 713H499.238V639.95L528.638 713H545.738L575.138 639.95V713H595.238V610.1H570.338L537.188 687.65L504.038 610.1H479.138V713ZM645.613 715.1C654.463 715.1 664.213 711.05 669.913 704.9V713H687.913V638H669.913V646.1C664.213 639.95 654.463 635.9 645.613 635.9C622.213 635.9 606.613 651.8 606.613 675.5C606.613 699.2 622.213 715.1 645.613 715.1ZM647.413 699.2C633.763 699.2 624.613 689.75 624.613 675.5C624.613 661.25 633.763 651.8 647.413 651.8C660.913 651.8 669.913 661.25 669.913 675.5C669.913 689.75 660.913 699.2 647.413 699.2ZM701.752 713H719.752V668.6C719.752 658.55 727.702 651.8 739.702 651.8H745.852V638C743.752 637.1 740.602 636.5 737.902 636.5C731.002 636.5 723.652 640.7 719.752 646.85V638H701.752V713ZM756.976 713H774.976V687.65L780.826 681.8L806.026 713H829.126L793.726 669.2L825.526 638H800.326L774.976 663.5V610.1H756.976V713ZM869.48 715.1C887.78 715.1 903.38 704 908.33 687.5H890.03C886.58 695 878.33 700.1 869.48 700.1C857.78 700.1 848.78 692.3 847.13 680.45H908.63L910.13 678.95V675.5C910.13 651.8 893.93 635.9 869.48 635.9C845.03 635.9 828.83 651.8 828.83 675.5C828.83 699.2 845.03 715.1 869.48 715.1ZM848.33 665.45C851.78 656.15 859.43 650.9 869.48 650.9C879.53 650.9 887.18 656.15 890.63 665.45H848.33ZM949.086 715.1C954.036 715.1 959.136 714.2 961.836 713V700.1H948.786C944.886 700.1 942.186 697.55 942.186 693.8V653H961.086V638H942.186V610.1H924.186V638H912.186V653H924.186V693.8C924.186 706.55 934.086 715.1 949.086 715.1ZM975.824 626.6H993.824V610.1H975.824V626.6ZM975.824 713H993.824V638H975.824V713ZM1007.61 713H1025.61V668.45C1025.61 658.4 1032.96 651.8 1043.91 651.8C1054.86 651.8 1062.21 658.4 1062.21 668.45V713H1080.21V666.35C1080.21 648.05 1066.56 635.9 1046.01 635.9C1038.66 635.9 1030.56 638.9 1025.61 643.55V638H1007.61V713ZM1127.41 743C1152.61 743 1166.71 729.2 1166.71 704.75V638H1148.71V645.35C1143.16 639.65 1134.01 635.9 1125.76 635.9C1103.11 635.9 1088.11 651.35 1088.11 674.45C1088.11 697.55 1103.11 713 1125.76 713C1134.01 713 1143.16 709.25 1148.71 703.55V704.75C1148.71 719 1141.06 727.1 1127.41 727.1C1117.36 727.1 1109.26 721.4 1107.01 713H1089.01C1091.56 731 1106.86 743 1127.41 743ZM1127.56 697.1C1114.66 697.1 1106.11 688.1 1106.11 674.45C1106.11 660.8 1114.66 651.8 1127.56 651.8C1140.31 651.8 1148.71 660.8 1148.71 674.45C1148.71 688.1 1140.31 697.1 1127.56 697.1Z" fill="white"/>
<path d="M828.847 1514H906.847V1498.1H858.997L888.997 1477.25C899.797 1470.05 906.997 1456.25 906.997 1442.75C906.997 1422.5 891.397 1409 867.847 1409C845.047 1409 829.747 1425.05 829.747 1449.05H846.697C846.697 1434.5 855.097 1424.9 867.847 1424.9C880.597 1424.9 888.997 1432.1 888.997 1442.75C888.997 1451.15 884.797 1459.7 878.497 1464.05L828.847 1498.85V1514ZM938.393 1515.5H954.893L1017.89 1409.6H1001.39L938.393 1515.5ZM947.543 1464.8C962.393 1464.8 974.393 1452.8 974.393 1437.95C974.393 1423.1 962.393 1411.1 947.543 1411.1C932.693 1411.1 920.693 1425.95 920.693 1437.95C920.693 1452.8 932.693 1464.8 947.543 1464.8ZM947.543 1448.6C941.543 1448.6 936.893 1443.95 936.893 1437.95C936.893 1431.95 941.543 1427.3 947.543 1427.3C953.543 1427.3 958.193 1431.95 958.193 1437.95C958.193 1443.95 953.543 1448.6 947.543 1448.6ZM1008.74 1516.1C1023.59 1516.1 1035.59 1504.1 1035.59 1489.25C1035.59 1474.4 1023.59 1462.4 1008.74 1462.4C993.893 1462.4 981.893 1477.25 981.893 1489.25C981.893 1504.1 993.893 1516.1 1008.74 1516.1ZM1008.74 1499.9C1002.74 1499.9 998.093 1495.25 998.093 1489.25C998.093 1483.25 1002.74 1478.6 1008.74 1478.6C1014.74 1478.6 1019.39 1483.25 1019.39 1489.25C1019.39 1495.25 1014.74 1499.9 1008.74 1499.9ZM664.095 1694H733.845V1676H684.195V1591.1H664.095V1694ZM744.912 1607.6H762.912V1591.1H744.912V1607.6ZM744.912 1694H762.912V1619H744.912V1694ZM813.299 1616.9C789.599 1616.9 773.699 1632.8 773.699 1656.5C773.699 1680.2 789.599 1696.1 813.299 1696.1C822.449 1696.1 832.499 1691.9 838.199 1685.75V1721.9H856.199V1619H838.199V1627.25C832.499 1621.1 822.449 1616.9 813.299 1616.9ZM815.099 1632.8C828.899 1632.8 838.199 1642.25 838.199 1656.5C838.199 1670.75 828.899 1680.2 815.099 1680.2C800.999 1680.2 791.699 1670.75 791.699 1656.5C791.699 1642.25 800.999 1632.8 815.099 1632.8ZM942.609 1619H924.609V1663.55C924.609 1673.6 917.259 1680.2 906.309 1680.2C895.359 1680.2 888.009 1673.6 888.009 1663.55V1619H870.009V1665.65C870.009 1683.95 883.659 1696.1 904.209 1696.1C911.559 1696.1 919.659 1693.1 924.609 1688.45V1694H942.609V1619ZM956.435 1607.6H974.435V1591.1H956.435V1607.6ZM956.435 1694H974.435V1619H956.435V1694ZM1024.82 1696.1C1033.97 1696.1 1044.02 1691.9 1049.72 1685.75V1694H1067.72V1591.1H1049.72V1627.25C1044.02 1621.1 1033.97 1616.9 1024.82 1616.9C1001.12 1616.9 985.222 1632.8 985.222 1656.5C985.222 1680.2 1001.12 1696.1 1024.82 1696.1ZM1026.62 1680.2C1012.52 1680.2 1003.22 1670.75 1003.22 1656.5C1003.22 1642.25 1012.52 1632.8 1026.62 1632.8C1040.42 1632.8 1049.72 1642.25 1049.72 1656.5C1049.72 1670.75 1040.42 1680.2 1026.62 1680.2ZM1084.46 1607.6H1102.46V1591.1H1084.46V1607.6ZM1084.46 1694H1102.46V1619H1084.46V1694ZM1150.45 1696.1C1155.4 1696.1 1160.5 1695.2 1163.2 1694V1681.1H1150.15C1146.25 1681.1 1143.55 1678.55 1143.55 1674.8V1634H1162.45V1619H1143.55V1591.1H1125.55V1619H1113.55V1634H1125.55V1674.8C1125.55 1687.55 1135.45 1696.1 1150.45 1696.1ZM1183.48 1721.9H1202.83L1243.33 1619H1223.98L1205.53 1666.1L1186.93 1619H1167.73L1196.38 1689.2L1183.48 1721.9Z" fill="white"/>
<path d="M1482.21 1240H1500.21V1137.1H1482.96C1479.96 1147.15 1472.16 1152.1 1458.51 1152.55V1166.65C1468.26 1166.35 1477.71 1163.95 1482.21 1160.8V1240ZM1537.73 1241.5H1554.23L1617.23 1135.6H1600.73L1537.73 1241.5ZM1546.88 1190.8C1561.73 1190.8 1573.73 1178.8 1573.73 1163.95C1573.73 1149.1 1561.73 1137.1 1546.88 1137.1C1532.03 1137.1 1520.03 1151.95 1520.03 1163.95C1520.03 1178.8 1532.03 1190.8 1546.88 1190.8ZM1546.88 1174.6C1540.88 1174.6 1536.23 1169.95 1536.23 1163.95C1536.23 1157.95 1540.88 1153.3 1546.88 1153.3C1552.88 1153.3 1557.53 1157.95 1557.53 1163.95C1557.53 1169.95 1552.88 1174.6 1546.88 1174.6ZM1608.08 1242.1C1622.93 1242.1 1634.93 1230.1 1634.93 1215.25C1634.93 1200.4 1622.93 1188.4 1608.08 1188.4C1593.23 1188.4 1581.23 1203.25 1581.23 1215.25C1581.23 1230.1 1593.23 1242.1 1608.08 1242.1ZM1608.08 1225.9C1602.08 1225.9 1597.43 1221.25 1597.43 1215.25C1597.43 1209.25 1602.08 1204.6 1608.08 1204.6C1614.08 1204.6 1618.73 1209.25 1618.73 1215.25C1618.73 1221.25 1614.08 1225.9 1608.08 1225.9ZM1413.36 1420H1433.46V1335.1H1463.16V1317.1H1383.66V1335.1H1413.36V1420ZM1492.42 1422.1C1510.72 1422.1 1526.32 1411 1531.27 1394.5H1512.97C1509.52 1402 1501.27 1407.1 1492.42 1407.1C1480.72 1407.1 1471.72 1399.3 1470.07 1387.45H1531.57L1533.07 1385.95V1382.5C1533.07 1358.8 1516.87 1342.9 1492.42 1342.9C1467.97 1342.9 1451.77 1358.8 1451.77 1382.5C1451.77 1406.2 1467.97 1422.1 1492.42 1422.1ZM1471.27 1372.45C1474.72 1363.15 1482.37 1357.9 1492.42 1357.9C1502.47 1357.9 1510.12 1363.15 1513.57 1372.45H1471.27ZM1579.84 1422.1C1588.69 1422.1 1598.44 1418.05 1604.14 1411.9V1420H1622.14V1345H1604.14V1353.1C1598.44 1346.95 1588.69 1342.9 1579.84 1342.9C1556.44 1342.9 1540.84 1358.8 1540.84 1382.5C1540.84 1406.2 1556.44 1422.1 1579.84 1422.1ZM1581.64 1406.2C1567.99 1406.2 1558.84 1396.75 1558.84 1382.5C1558.84 1368.25 1567.99 1358.8 1581.64 1358.8C1595.14 1358.8 1604.14 1368.25 1604.14 1382.5C1604.14 1396.75 1595.14 1406.2 1581.64 1406.2ZM1635.97 1420H1653.97V1369.45C1653.97 1363 1659.37 1358.8 1667.62 1358.8C1675.87 1358.8 1681.27 1363 1681.27 1369.45V1420H1699.27V1369.45C1699.27 1363 1704.67 1358.8 1712.92 1358.8C1721.17 1358.8 1726.57 1363 1726.57 1369.45V1420H1744.57V1367.65C1744.57 1352.8 1732.57 1342.9 1714.72 1342.9C1706.47 1342.9 1697.47 1346.5 1692.22 1351.9C1687.12 1346.5 1679.17 1342.9 1672.27 1342.9C1665.07 1342.9 1658.47 1346.05 1653.97 1351.75V1345H1635.97V1420Z" fill="white"/>
<defs>
<filter id="filter0_i_231_81" x="0" y="0" width="2039" height="1755.96" filterUnits="userSpaceOnUse" color-interpolation-filters="sRGB">
<feFlood flood-opacity="0" result="BackgroundImageFix"/>
<feBlend mode="normal" in="SourceGraphic" in2="BackgroundImageFix" result="shape"/>
<feColorMatrix in="SourceAlpha" type="matrix" values="0 0 0 0 0 0 0 0 0 0 0 0 0 0 0 0 0 0 127 0" result="hardAlpha"/>
<feOffset dx="79" dy="83"/>
<feGaussianBlur stdDeviation="100"/>
<feComposite in2="hardAlpha" operator="arithmetic" k2="-1" k3="1"/>
<feColorMatrix type="matrix" values="0 0 0 0 0 0 0 0 0 0 0 0 0 0 0 0 0 0 0.25 0"/>
<feBlend mode="normal" in2="shape" result="effect1_innerShadow_231_81"/>
</filter>
<filter id="filter1_i_231_81" x="287.035" y="980" width="1724.65" height="1019" filterUnits="userSpaceOnUse" color-interpolation-filters="sRGB">
<feFlood flood-opacity="0" result="BackgroundImageFix"/>
<feBlend mode="normal" in="SourceGraphic" in2="BackgroundImageFix" result="shape"/>
<feColorMatrix in="SourceAlpha" type="matrix" values="0 0 0 0 0 0 0 0 0 0 0 0 0 0 0 0 0 0 127 0" result="hardAlpha"/>
<feOffset dx="83" dy="39"/>
<feGaussianBlur stdDeviation="100"/>
<feComposite in2="hardAlpha" operator="arithmetic" k2="-1" k3="1"/>
<feColorMatrix type="matrix" values="0 0 0 0 0 0 0 0 0 0 0 0 0 0 0 0 0 0 0.25 0"/>
<feBlend mode="normal" in2="shape" result="effect1_innerShadow_231_81"/>
</filter>
<filter id="filter2_i_231_81" x="980" y="954.379" width="1024" height="820.611" filterUnits="userSpaceOnUse" color-interpolation-filters="sRGB">
<feFlood flood-opacity="0" result="BackgroundImageFix"/>
<feBlend mode="normal" in="SourceGraphic" in2="BackgroundImageFix" result="shape"/>
<feColorMatrix in="SourceAlpha" type="matrix" values="0 0 0 0 0 0 0 0 0 0 0 0 0 0 0 0 0 0 127 0" result="hardAlpha"/>
<feMorphology radius="65" operator="erode" in="SourceAlpha" result="effect1_innerShadow_231_81"/>
<feOffset dx="44" dy="-22"/>
<feGaussianBlur stdDeviation="100"/>
<feComposite in2="hardAlpha" operator="arithmetic" k2="-1" k3="1"/>
<feColorMatrix type="matrix" values="0 0 0 0 0 0 0 0 0 0 0 0 0 0 0 0 0 0 0.25 0"/>
<feBlend mode="normal" in2="shape" result="effect1_innerShadow_231_81"/>
</filter>
</defs>
</svg>
